<svg width="117" height="36" viewBox="0 0 117 36" fill="none" xmlns="http://www.w3.org/2000/svg">
<path d="M45.3866 16.49C42.2366 15.71 39.9266 15.32 39.9266 12.47C39.9266 10.7 41.5466 9.53 44.5766 9.53C47.9666 9.53 49.5866 11.03 49.9766 13.91H52.6766C52.3166 9.47 49.1366 7.13 44.5766 7.13C39.8366 7.13 37.2266 9.38 37.2266 12.77C37.2266 16.94 41.0666 18.05 44.2766 18.8C49.0766 19.91 50.6666 20.45 50.6666 23.39C50.6666 25.31 49.3466 27.02 45.6266 27.02C41.1266 27.02 39.3266 24.74 39.0266 21.8H36.3266C36.6266 26.72 40.5566 29.42 45.6266 29.42C51.0566 29.42 53.3666 26.51 53.3666 23.39C53.3666 18.5 50.2166 17.69 45.3866 16.49Z" fill="#CBCBCB"/>
<path d="M70.1585 28.37L67.9685 25.73C69.9185 23.81 71.2385 21.26 71.7785 18.44C73.0385 11.9 69.7085 7.13 63.3185 7.13C57.1085 7.13 52.0685 11.72 50.8385 18.08C49.5785 24.62 52.9085 29.42 59.2685 29.42C61.6985 29.42 64.0085 28.73 65.9585 27.44L68.1485 30.08L70.1585 28.37ZM59.4785 27.02C54.1385 27.02 52.6085 22.97 53.4785 18.44C54.3785 13.73 57.6785 9.53 63.1385 9.53C68.4785 9.53 70.0385 13.55 69.1385 18.08C68.7185 20.24 67.8185 22.25 66.4985 23.81L64.2185 21.08L62.2385 22.79L64.4885 25.55C63.1085 26.45 61.4585 27.02 59.4785 27.02Z" fill="#CBCBCB"/>
<path d="M85.7585 21.86V7.55H83.0585V21.86C83.0585 25.34 81.2585 27.02 77.5385 27.02C73.8185 27.02 72.0185 25.34 72.0185 21.86V7.55H69.3185V21.86C69.3185 26.24 71.8085 29.42 77.5385 29.42C83.2685 29.42 85.7585 26.24 85.7585 21.86Z" fill="#CBCBCB"/>
<path d="M95.0712 23.63L96.9612 29H99.7512L91.8612 7.55H88.8612L80.9412 29H83.7312L85.6212 23.63H95.0712ZM86.5212 21.23L90.3312 10.04H90.3912L94.2012 21.23H86.5212Z" fill="#CBCBCB"/>
<path d="M97.2996 29H105.07C110.98 29 114.61 25.19 114.61 18.29C114.61 11.39 110.98 7.55 105.07 7.55H97.2996V29ZM99.9996 9.95H105.07C110.53 9.95 111.91 14.09 111.91 18.29C111.91 22.49 110.53 26.6 105.07 26.6H99.9996V9.95Z" fill="#CBCBCB"/>
<path d="M13.7866 29H16.4866L20.2066 9.95H27.3466L27.7966 7.55H10.8166L10.3666 9.95H17.5066L13.7866 29Z" fill="#CBCBCB"/>
<path d="M5.34657 7.55L1.17656 29H3.87657L8.04657 7.55H5.34657Z" fill="#CBCBCB"/>
</svg>
